<svg width="121" height="28" viewBox="0 0 121 28" fill="none" xmlns="http://www.w3.org/2000/svg">
<g clip-path="url(#clip0_5464_897)">
<path d="M0.714355 0.123169V27.8653H27.8903V0.123169H0.714355ZM14.0533 18.6099H8.00813C7.9951 18.6099 7.98456 18.5991 7.98456 18.5859V9.36879C7.98456 9.34501 8.01475 9.33565 8.02773 9.3554L14.0728 18.5725C14.0833 18.5885 14.0721 18.6099 14.0533 18.6099ZM21.6796 18.6099H15.6345C15.6215 18.6099 15.6109 18.5991 15.6109 18.5859V9.36879C15.6109 9.34501 15.6411 9.33565 15.6541 9.3554L21.6992 18.5725C21.7097 18.5885 21.6985 18.6099 21.6796 18.6099Z" fill="#A4BCC2"/>
<path d="M34.3286 20.3683H36.0567L37.9724 23.5141L39.888 20.3683H41.6163V27.8078H40.0235V22.9509L37.9724 26.1287H37.9307L35.9007 22.9828V27.8078H34.3286V20.3683ZM45.7861 24.1093V24.0881C45.7861 21.9731 47.4205 20.2407 49.6693 20.2407C51.9181 20.2407 53.5318 21.9518 53.5318 24.0668V24.0881C53.5318 26.2029 51.8974 27.9353 49.6486 27.9353C47.3998 27.9353 45.7861 26.2243 45.7861 24.1093ZM51.8557 24.1093V24.0881C51.8557 22.8128 50.9395 21.75 49.6486 21.75C48.3576 21.75 47.4622 22.7914 47.4622 24.0668V24.0881C47.4622 25.3635 48.3784 26.4263 49.6693 26.4263C50.9603 26.4263 51.8557 25.3846 51.8557 24.1093ZM57.4564 20.3683H60.7879C61.7146 20.3683 62.4329 20.6339 62.9117 21.1229C63.3178 21.5374 63.5364 22.1218 63.5364 22.8234V22.8445C63.5364 24.0456 62.9014 24.8 61.9748 25.1509L63.7552 27.8078H61.8812L60.3194 25.4271H59.0597V27.8078H57.4564V20.3683ZM60.6838 23.9817C61.4647 23.9817 61.9123 23.5566 61.9123 22.9295V22.9084C61.9123 22.2068 61.4334 21.8456 60.6526 21.8456H59.0597V23.9817H60.6838ZM69.9364 21.8775H67.719V20.3683H73.7573V21.8775H71.5398V27.8078H69.9364V21.8775ZM77.2654 24.1093V24.0881C77.2654 21.9731 78.8792 20.2407 81.0863 20.2407C82.3982 20.2407 83.1892 20.6022 83.9494 21.261L82.9393 22.5044C82.3773 22.0262 81.8775 21.75 81.0343 21.75C79.8682 21.75 78.9415 22.802 78.9415 24.0668V24.0881C78.9415 25.4485 79.8577 26.4474 81.1488 26.4474C81.7319 26.4474 82.2523 26.2987 82.6584 26.0011V24.9384H81.0446V23.5247H84.2096V26.7556C83.46 27.404 82.4293 27.9353 81.0966 27.9353C78.8271 27.9353 77.2654 26.3093 77.2654 24.1093ZM91.58 20.3152H93.0582L96.1817 27.8078H94.5054L93.8391 26.1393H90.7575L90.0912 27.8078H88.4567L91.58 20.3152ZM93.2667 24.6939L92.2983 22.2813L91.3301 24.6939H93.2667ZM99.6384 24.1093V24.0881C99.6384 21.9731 101.252 20.2407 103.459 20.2407C104.771 20.2407 105.562 20.6022 106.322 21.261L105.313 22.5044C104.75 22.0262 104.251 21.75 103.407 21.75C102.241 21.75 101.315 22.802 101.315 24.0668V24.0881C101.315 25.4485 102.231 26.4474 103.522 26.4474C104.105 26.4474 104.625 26.2987 105.031 26.0011V24.9384H103.418V23.5247H106.583V26.7556C105.833 27.404 104.802 27.9353 103.47 27.9353C101.2 27.9353 99.6384 26.3093 99.6384 24.1093ZM111.246 20.3683H116.743V21.8242H112.839V23.3335H116.275V24.7895H112.839V26.3518H116.795V27.8078H111.246V20.3683Z" fill="white"/>
<path d="M47.5122 16.8813V8.89619L42.8364 13.6913C42.8022 13.7264 42.7467 13.7268 42.712 13.6922L37.9066 8.89619V16.8813C37.9066 16.9311 37.8671 16.9715 37.8183 16.9715H34.4092C34.3604 16.9715 34.3208 16.9311 34.3208 16.8813V0.197203C34.3208 0.116616 34.4164 0.076475 34.472 0.133744L42.7529 8.67433L50.9465 0.135713C51.002 0.0779844 51.098 0.118016 51.098 0.198844V16.8813C51.098 16.9311 51.0585 16.9715 51.0097 16.9715H47.6006C47.5518 16.9715 47.5122 16.9311 47.5122 16.8813ZM62.6489 0C67.3648 0 71.0593 3.86024 71.0593 8.67433C71.0593 13.4663 67.3648 17.3042 62.6489 17.3042C57.9548 17.3042 54.2821 13.4663 54.2821 8.67433C54.2821 3.86024 57.9548 0 62.6489 0ZM62.6707 13.555C65.3655 13.555 67.4735 11.2256 67.4735 8.62997C67.4735 5.87904 65.3655 3.63834 62.6707 3.63834C60.0194 3.63834 57.9114 5.87904 57.9114 8.62997C57.9114 11.2256 60.0194 13.555 62.6707 13.555ZM76.6363 16.9045V3.94898H72.2686C72.2323 3.94898 72.2029 3.91895 72.2029 3.88194V0.399853C72.2029 0.362819 72.2323 0.332806 72.2686 0.332806H84.6333C84.6695 0.332806 84.6989 0.362819 84.6989 0.399853V3.88194C84.6989 3.91895 84.6695 3.94898 84.6333 3.94898H80.2221V16.9045C80.2221 16.9415 80.1927 16.9715 80.1564 16.9715H76.702C76.6658 16.9715 76.6363 16.9415 76.6363 16.9045ZM90.9824 16.9045V3.94898H86.6149C86.5786 3.94898 86.5492 3.91895 86.5492 3.88194V0.399853C86.5492 0.362819 86.5786 0.332806 86.6149 0.332806H98.9795C99.0158 0.332806 99.0452 0.362819 99.0452 0.399853V3.88194C99.0452 3.91895 99.0158 3.94898 98.9795 3.94898H94.5683V16.9045C94.5683 16.9415 94.5389 16.9715 94.5026 16.9715H91.0481C91.0118 16.9715 90.9824 16.9415 90.9824 16.9045ZM108.439 0C113.155 0 116.849 3.86024 116.849 8.67433C116.849 13.4663 113.155 17.3042 108.439 17.3042C103.745 17.3042 100.072 13.4663 100.072 8.67433C100.072 3.86024 103.745 0 108.439 0ZM108.46 13.555C111.155 13.555 113.263 11.2256 113.263 8.62997C113.263 5.87904 111.155 3.63834 108.46 3.63834C105.809 3.63834 103.701 5.87904 103.701 8.62997C103.701 11.2256 105.809 13.555 108.46 13.555Z" fill="white"/>
<path d="M120.355 2.00894C120.355 2.96886 119.617 3.72219 118.657 3.72219C117.706 3.72219 116.948 2.96886 116.948 2.00894C116.948 1.06974 117.706 0.316406 118.657 0.316406C119.617 0.316406 120.355 1.06974 120.355 2.00894ZM117.373 2.00894C117.373 2.76238 117.919 3.36097 118.667 3.36097C119.395 3.36097 119.931 2.7624 119.931 2.01931C119.931 1.26587 119.395 0.657044 118.657 0.657044C117.919 0.657044 117.373 1.26585 117.373 2.00894ZM118.394 2.89654H118.01V1.20401C118.161 1.17303 118.374 1.15242 118.647 1.15242C118.96 1.15242 119.102 1.20401 119.223 1.27622C119.314 1.34843 119.385 1.48267 119.385 1.64781C119.385 1.83355 119.243 1.97807 119.041 2.03992V2.06052C119.203 2.12247 119.294 2.24637 119.344 2.47346C119.395 2.73141 119.425 2.83459 119.466 2.89654H119.051C119 2.83459 118.97 2.67982 118.92 2.48372C118.889 2.29797 118.788 2.2154 118.576 2.2154H118.394V2.89654ZM118.404 1.93673H118.586C118.798 1.93673 118.97 1.86452 118.97 1.68904C118.97 1.53428 118.859 1.43098 118.616 1.43098C118.515 1.43098 118.444 1.44135 118.404 1.4517V1.93673Z" fill="white"/>
</g>
<defs>
<clipPath id="clip0_5464_897">
<rect width="120" height="28" fill="white" transform="translate(0.5)"/>
</clipPath>
</defs>
</svg>
