<svg width="121" height="28" viewBox="0 0 121 28" fill="none" xmlns="http://www.w3.org/2000/svg">
<g clip-path="url(#clip0_5464_904)">
<path d="M31.6046 8.05042L24.6483 27.1226H21.3671L15.9922 13.874C16.1899 13.2094 10.4591 27.7872 10.6568 27.1226H7.33605L0.5 8.05042H4.53078L9.03595 22.2764L14.5295 8.05044H17.4533L22.8677 22.3155L27.5706 8.05044L31.6046 8.05042Z" fill="#00B6FF"/>
<path d="M49.2915 18.3684H35.5767C35.6953 21.69 37.3953 24.0357 41.4656 24.0357C43.6383 24.0357 45.4568 23.2538 46.7614 22.0027L48.8171 24.4657C46.7219 26.3814 44.391 27.4745 41.4276 27.4745C34.8667 27.4745 31.6646 23.2131 31.6646 17.624C31.6646 12.1132 34.6295 7.73608 41.1114 7.73608C46.4863 7.73608 49.2915 11.6065 49.2915 16.8421V18.3684ZM45.8142 15.9461C45.577 13.2485 44.3926 11.2156 40.9532 11.2156C37.5139 11.2156 35.9737 13.0139 35.5783 15.9461H45.8142Z" fill="#00B6FF"/>
<path d="M117.741 27.595C116.221 27.595 114.981 26.4471 114.981 24.9834C114.981 23.5213 116.221 22.3734 117.741 22.3734C119.261 22.3734 120.5 23.5212 120.5 24.9834C120.5 26.4471 119.261 27.595 117.741 27.595Z" fill="white"/>
<path d="M81.6614 27.6044H77.8236V16.7688C77.8236 14.1181 77.2242 11.7068 73.3437 11.7068C69.4631 11.7068 69.0646 14.9485 69.0646 17.3224V27.6044H65.2252V16.7688C65.2252 14.1182 64.5863 11.7068 60.7453 11.7068C58.5868 11.7068 56.5864 13.2878 56.5864 15.1065V27.6045H52.7485V8.30544H55.9476L56.0677 10.2837C57.2268 8.58224 59.028 7.90979 60.5871 7.90979C63.5474 7.90979 65.5066 8.70107 67.3853 11.1125C68.8258 8.85901 70.7044 7.90979 73.2646 7.90979C79.223 7.90979 81.6614 11.7458 81.6614 16.8485V27.6044Z" fill="white"/>
<path d="M91.7753 27.6044C88.056 27.5262 86.0557 26.1797 86.0557 22.5814V0H89.6563V22.5032C89.6563 23.6104 90.1766 24.3235 91.7753 24.4017L91.7753 27.6044Z" fill="white"/>
<path d="M103.571 7.94885C96.771 7.94885 94.252 12.3009 94.252 17.9948C94.252 23.6886 96.771 28 103.571 28C110.37 28 112.888 23.6902 112.888 17.9948C112.888 12.2994 110.369 7.94885 103.571 7.94885ZM103.571 24.361C98.8915 24.361 98.1309 21.1959 98.1309 17.9932C98.1309 14.7906 98.8915 11.5863 103.571 11.5863C108.209 11.5863 109.009 14.7905 109.009 17.9932C109.009 21.1959 108.21 24.361 103.571 24.361Z" fill="white"/>
<path d="M115.328 9.3938C115.328 10.1936 114.694 10.8213 113.867 10.8213C113.05 10.8213 112.398 10.1936 112.398 9.3938C112.398 8.61123 113.05 7.98352 113.867 7.98352C114.694 7.98352 115.328 8.61123 115.328 9.3938ZM112.763 9.3938C112.763 10.0216 113.233 10.5203 113.876 10.5203C114.502 10.5203 114.963 10.0216 114.963 9.40243C114.963 8.77463 114.502 8.26735 113.867 8.26735C113.233 8.26735 112.763 8.77465 112.763 9.3938ZM113.641 10.1334H113.311V8.72311C113.441 8.69729 113.624 8.68012 113.859 8.68012C114.128 8.68012 114.25 8.72311 114.354 8.78328C114.433 8.84345 114.494 8.95532 114.494 9.0929C114.494 9.24766 114.372 9.36807 114.198 9.41962V9.43679C114.337 9.4884 114.415 9.59164 114.459 9.78085C114.502 9.99579 114.528 10.0818 114.563 10.1334H114.207C114.163 10.0818 114.137 9.95278 114.094 9.78939C114.068 9.63462 113.981 9.56582 113.798 9.56582H113.641L113.641 10.1334ZM113.65 9.33365H113.807C113.989 9.33365 114.137 9.27348 114.137 9.12725C114.137 8.9983 114.041 8.91223 113.833 8.91223C113.746 8.91223 113.685 8.92085 113.65 8.9295V9.33365Z" fill="white"/>
</g>
<defs>
<clipPath id="clip0_5464_904">
<rect width="120" height="28" fill="white" transform="translate(0.5)"/>
</clipPath>
</defs>
</svg>
